<svg width="473" height="323" viewBox="0 0 473 323" fill="none" xmlns="http://www.w3.org/2000/svg">
<g clip-path="url(#clip0_54_889)">
<path d="M115.203 166.822L57.9911 179.369L68.7013 228.208L125.913 215.662L115.203 166.822Z" fill="#EDEBD7" stroke="#A39594" stroke-width="3.79739" stroke-linejoin="round"/>
<path d="M109.144 172.539L65.8863 182.025L72.3124 211.329L115.57 201.843L109.144 172.539Z" fill="#A39594"/>
<path d="M115.748 207.654L74.2342 216.757L74.9992 220.246L116.513 211.142L115.748 207.654Z" fill="#A39594"/>
<path d="M466.857 139.999L408.317 138.073L406.673 188.046L465.213 189.972L466.857 139.999Z" fill="#EDEBD7" stroke="#A39594" stroke-width="3.79739" stroke-linejoin="round"/>
<path d="M458.385 163.065L415.907 161.668L415.79 165.238L458.267 166.635L458.385 163.065Z" fill="#A39594"/>
<path d="M458.584 157.008L416.107 155.611L415.989 159.18L458.466 160.577L458.584 157.008Z" fill="#A39594"/>
<path d="M458.556 150.185L416.078 148.787L415.961 152.357L458.438 153.754L458.556 150.185Z" fill="#A39594"/>
<path d="M269.06 26.5677L210.851 33.0764L216.407 82.7669L274.616 76.2582L269.06 26.5677Z" fill="#EDEBD7" stroke="#A39594" stroke-width="3.79739" stroke-linejoin="round"/>
<path d="M262.438 31.6208L218.426 36.542L221.76 66.3563L265.771 61.4351L262.438 31.6208Z" fill="#A39594"/>
<path d="M265.342 67.233L223.105 71.9558L223.502 75.5051L265.738 70.7824L265.342 67.233Z" fill="#A39594"/>
<path d="M67.8971 180.86L9.61993 174.995L4.6127 224.743L62.8899 230.609L67.8971 180.86Z" fill="#EDEBD7" stroke="#A39594" stroke-width="3.79739" stroke-linejoin="round"/>
<path d="M60.361 184.409L16.2978 179.974L13.2935 209.823L57.3567 214.258L60.361 184.409Z" fill="#A39594"/>
<path d="M55.7184 219.837L13.4319 215.581L13.0743 219.134L55.3608 223.39L55.7184 219.837Z" fill="#A39594"/>
<path d="M94.735 252.09L36.3537 256.809L40.3818 306.646L98.7631 301.928L94.735 252.09Z" fill="#EDEBD7" stroke="#A39594" stroke-width="3.79739" stroke-linejoin="round"/>
<path d="M87.9606 256.937L43.8187 260.505L46.2355 290.407L90.3775 286.84L87.9606 256.937Z" fill="#A39594"/>
<path d="M89.77 292.622L47.408 296.046L47.6957 299.605L90.0577 296.182L89.77 292.622Z" fill="#A39594"/>
<path d="M130.254 14.2204L60.5897 16.4729L63.5604 108.349L133.225 106.097L130.254 14.2204Z" fill="#EDEBD7" stroke="#A39594" stroke-width="3.79739" stroke-linejoin="round"/>
<path d="M124.319 22.2336L104.33 22.8799L105.207 50.0087L125.197 49.3623L124.319 22.2336Z" fill="#A39594" stroke="#A39594" stroke-width="3.79739" stroke-linejoin="round"/>
<path d="M98.1823 22.4084L66.4297 23.4351L66.5175 26.1523L98.2701 25.1257L98.1823 22.4084Z" fill="#A39594"/>
<path d="M98.3208 26.6918L66.5682 27.7185L66.656 30.4358L98.4086 29.4091L98.3208 26.6918Z" fill="#A39594"/>
<path d="M98.2924 31.3381L66.5398 32.3647L66.6277 35.082L98.3802 34.0553L98.2924 31.3381Z" fill="#A39594"/>
<path d="M98.4539 36.3356L66.7013 37.3623L66.7892 40.0796L98.5417 39.0529L98.4539 36.3356Z" fill="#A39594"/>
<path d="M98.5925 40.6191L66.8399 41.6458L66.9278 44.363L98.6803 43.3363L98.5925 40.6191Z" fill="#A39594"/>
<path d="M98.5639 45.2653L66.8113 46.292L66.8992 49.0093L98.6518 47.9826L98.5639 45.2653Z" fill="#A39594"/>
<path d="M126.931 55.0679L67.4692 56.9905L67.557 59.7077L127.019 57.7851L126.931 55.0679Z" fill="#A39594"/>
<path d="M127.07 59.3516L67.6078 61.2742L67.6956 63.9914L127.158 62.0688L127.07 59.3516Z" fill="#A39594"/>
<path d="M126.886 64.0027L67.4234 65.9253L67.5113 68.6426L126.973 66.7199L126.886 64.0027Z" fill="#A39594"/>
<path d="M127.047 69.0002L67.585 70.9229L67.6729 73.6401L127.135 71.7175L127.047 69.0002Z" fill="#A39594"/>
<path d="M127.186 73.2837L67.7235 75.2063L67.8114 77.9236L127.274 76.001L127.186 73.2837Z" fill="#A39594"/>
<path d="M127.002 77.9348L67.5394 79.8574L67.6272 82.5747L127.089 80.6521L127.002 77.9348Z" fill="#A39594"/>
<path d="M127.106 82.5767L67.644 84.4993L67.7318 87.2165L127.194 85.2939L127.106 82.5767Z" fill="#A39594"/>
<path d="M127.245 86.8604L67.7826 88.783L67.8705 91.5002L127.333 89.5776L127.245 86.8604Z" fill="#A39594"/>
<path d="M127.06 91.5115L67.5982 93.4341L67.6861 96.1513L127.148 94.2287L127.06 91.5115Z" fill="#A39594"/>
<path d="M127.222 96.509L67.7599 98.4316L67.8477 101.149L127.31 99.2263L127.222 96.509Z" fill="#A39594"/>
<path d="M370.439 13.7527L356.69 94.2395L374.514 90.2348L391.999 95.5935L408.875 99.2171L426.175 100.377L439.116 25.6478L370.439 13.7527Z" fill="#EDEBD7" stroke="#A39594" stroke-width="3.79739" stroke-linejoin="round"/>
<path d="M365.916 81.5022L386.763 85.0959L388.903 72.8766L368.055 69.2829L365.916 81.5022Z" fill="#A39594" stroke="#A39594" stroke-width="2.64027" stroke-linejoin="round"/>
<path d="M391.132 86.1648L422.435 91.5862L422.899 88.9074L391.596 83.486L391.132 86.1648Z" fill="#A39594"/>
<path d="M391.864 81.9419L423.167 87.3633L423.631 84.6845L392.328 79.2631L391.864 81.9419Z" fill="#A39594"/>
<path d="M392.832 77.3975L424.135 82.8188L424.599 80.14L393.296 74.7187L392.832 77.3975Z" fill="#A39594"/>
<path d="M366.274 65.0002L424.894 75.1526L425.358 72.4738L366.738 62.3214L366.274 65.0002Z" fill="#A39594"/>
<path d="M367.005 60.7773L425.626 70.9297L426.09 68.2509L367.469 58.0985L367.005 60.7773Z" fill="#A39594"/>
<path d="M368.127 56.2594L426.748 66.4119L427.211 63.7331L368.591 53.5806L368.127 56.2594Z" fill="#A39594"/>
<path d="M368.98 51.3329L427.601 61.4854L428.065 58.8065L369.444 48.6541L368.98 51.3329Z" fill="#A39594"/>
<path d="M369.712 47.11L428.332 57.2625L428.796 54.5836L370.175 44.4312L369.712 47.11Z" fill="#A39594"/>
<path d="M370.833 42.5922L429.454 52.7446L429.918 50.0658L371.297 39.9134L370.833 42.5922Z" fill="#A39594"/>
<path d="M371.67 38.0253L430.291 48.1777L430.755 45.4989L372.134 35.3465L371.67 38.0253Z" fill="#A39594"/>
<path d="M372.402 33.8024L431.022 43.9548L431.486 41.276L372.866 31.1236L372.402 33.8024Z" fill="#A39594"/>
<path d="M373.524 29.2848L432.144 39.4373L432.608 36.7585L373.988 26.606L373.524 29.2848Z" fill="#A39594"/>
<path d="M374.394 24.2599L432.997 34.5105L434.019 28.586L375.415 18.3354L374.394 24.2599Z" fill="#666666"/>
<path d="M295.146 97.9235L236.594 99.4688L237.914 149.452L296.465 147.906L295.146 97.9235Z" fill="#EDEBD7" stroke="#A39594" stroke-width="3.79739" stroke-linejoin="round"/>
<path d="M288.118 102.396L243.848 103.564L244.639 133.554L288.91 132.386L288.118 102.396Z" fill="#A39594"/>
<path d="M287.99 138.127L245.504 139.248L245.598 142.818L288.084 141.697L287.99 138.127Z" fill="#A39594"/>
<path d="M234.677 23.3105L176.183 20.2883L173.603 70.2219L232.097 73.2441L234.677 23.3105Z" fill="#EDEBD7" stroke="#A39594" stroke-width="3.79739" stroke-linejoin="round"/>
<path d="M225.774 46.2142L183.33 44.0212L183.146 47.5879L225.59 49.7809L225.774 46.2142Z" fill="#A39594"/>
<path d="M226.087 40.1614L183.643 37.9685L183.459 41.5352L225.902 43.7281L226.087 40.1614Z" fill="#A39594"/>
<path d="M226.186 33.3389L183.743 31.146L183.558 34.7127L226.002 36.9056L226.186 33.3389Z" fill="#A39594"/>
<path d="M242.479 174.232L184.527 165.738L177.276 215.209L235.228 223.704L242.479 174.232Z" fill="#EDEBD7" stroke="#A39594" stroke-width="3.79739" stroke-linejoin="round"/>
<path d="M234.791 177.437L190.973 171.014L186.622 200.697L230.44 207.12L234.791 177.437Z" fill="#A39594"/>
<path d="M228.551 212.618L186.5 206.455L185.982 209.988L228.033 216.152L228.551 212.618Z" fill="#A39594"/>
<path d="M358.082 172.793L300.726 160.923L290.592 209.885L347.948 221.756L358.082 172.793Z" fill="#EDEBD7" stroke="#A39594" stroke-width="3.79739" stroke-linejoin="round"/>
<path d="M350.218 175.543L306.852 166.567L300.772 195.945L344.138 204.92L350.218 175.543Z" fill="#A39594"/>
<path d="M341.931 210.299L300.313 201.685L299.589 205.182L341.207 213.796L341.931 210.299Z" fill="#A39594"/>
<path d="M459.919 252.042L402.563 240.172L392.429 289.134L449.785 301.005L459.919 252.042Z" fill="#EDEBD7" stroke="#A39594" stroke-width="3.79739" stroke-linejoin="round"/>
<path d="M452.056 254.792L408.689 245.816L402.609 275.194L445.976 284.169L452.056 254.792Z" fill="#A39594"/>
<path d="M443.768 289.548L402.15 280.934L401.426 284.431L443.045 293.045L443.768 289.548Z" fill="#A39594"/>
<path d="M63.3427 20.7134C64.5973 20.7547 65.6478 19.7711 65.689 18.5165C65.7303 17.262 64.7467 16.2115 63.4921 16.1702C62.2376 16.1289 61.1871 17.1125 61.1458 18.3671C61.1045 19.6217 62.0881 20.6722 63.3427 20.7134Z" fill="#CB8589" stroke="#CB8589" stroke-width="2.89435" stroke-linejoin="round"/>
<path d="M62.001 184.403C63.2555 184.444 64.306 183.461 64.3473 182.206C64.3886 180.952 63.405 179.901 62.1504 179.86C60.8958 179.819 59.8453 180.802 59.8041 182.057C59.7628 183.311 60.7464 184.362 62.001 184.403Z" fill="#CB8589" stroke="#CB8589" stroke-width="2.89435" stroke-linejoin="round"/>
<path d="M42.2803 261.579C43.5349 261.62 44.5854 260.636 44.6267 259.382C44.6679 258.127 43.6844 257.077 42.4298 257.035C41.1752 256.994 40.1247 257.978 40.0834 259.232C40.0421 260.487 41.0257 261.537 42.2803 261.579Z" fill="#CB8589" stroke="#CB8589" stroke-width="2.89435" stroke-linejoin="round"/>
<path d="M209.72 179.661C210.974 179.702 212.025 178.718 212.066 177.464C212.107 176.209 211.124 175.159 209.869 175.117C208.614 175.076 207.564 176.06 207.523 177.314C207.481 178.569 208.465 179.619 209.72 179.661Z" fill="#CB8589" stroke="#CB8589" stroke-width="2.89435" stroke-linejoin="round"/>
<path d="M242.671 38.2354C243.926 38.2767 244.976 37.2931 245.018 36.0385C245.059 34.7839 244.075 33.7334 242.821 33.6922C241.566 33.6509 240.516 34.6345 240.474 35.8891C240.433 37.1436 241.417 38.1941 242.671 38.2354Z" fill="#CB8589" stroke="#CB8589" stroke-width="2.89435" stroke-linejoin="round"/>
<path d="M262.724 104.591C263.979 104.632 265.029 103.649 265.071 102.394C265.112 101.139 264.128 100.089 262.874 100.048C261.619 100.006 260.569 100.99 260.527 102.245C260.486 103.499 261.47 104.55 262.724 104.591Z" fill="#CB8589" stroke="#CB8589" stroke-width="2.89435" stroke-linejoin="round"/>
<path d="M304.128 167.1C305.383 167.142 306.433 166.158 306.474 164.903C306.516 163.649 305.532 162.598 304.278 162.557C303.023 162.516 301.972 163.499 301.931 164.754C301.89 166.009 302.874 167.059 304.128 167.1Z" fill="#CB8589" stroke="#CB8589" stroke-width="2.89435" stroke-linejoin="round"/>
<path d="M437.022 146.458C438.276 146.5 439.327 145.516 439.368 144.261C439.409 143.007 438.426 141.956 437.171 141.915C435.917 141.874 434.866 142.857 434.825 144.112C434.784 145.367 435.767 146.417 437.022 146.458Z" fill="#CB8589" stroke="#CB8589" stroke-width="2.89435" stroke-linejoin="round"/>
<path d="M405.523 245.834C406.778 245.875 407.828 244.891 407.87 243.637C407.911 242.382 406.927 241.332 405.673 241.291C404.418 241.249 403.368 242.233 403.326 243.487C403.285 244.742 404.269 245.793 405.523 245.834Z" fill="#CB8589" stroke="#CB8589" stroke-width="2.89435" stroke-linejoin="round"/>
<path d="M331.311 176.724C332.566 176.766 333.616 175.782 333.657 174.528C333.699 173.273 332.715 172.222 331.46 172.181C330.206 172.14 329.155 173.123 329.114 174.378C329.073 175.633 330.056 176.683 331.311 176.724Z" fill="#CB8589" stroke="#CB8589" stroke-width="2.89435" stroke-linejoin="round"/>
<path d="M63.9896 18.5325C63.9896 18.5325 122.173 82.3946 171.466 114.192C224.986 148.717 304.818 165.566 304.818 165.566" stroke="#CB8589" stroke-width="2.5" stroke-linejoin="round"/>
<path d="M243.219 36.9202C243.219 36.9202 245.116 68.4906 234.253 110.662C223.736 151.492 209.813 177.616 209.813 177.616" stroke="#CB8589" stroke-width="2.5" stroke-linejoin="round"/>
<path d="M331.294 174.81C331.294 174.81 307.926 153.703 279.969 112.689C252.012 71.6754 243.236 36.3977 243.236 36.3977" stroke="#CB8589" stroke-width="2.5" stroke-linejoin="round"/>
<path d="M42.8094 260.025C42.8094 260.025 162.933 295.95 224.908 293.189C286.884 290.427 405.296 243.422 405.296 243.422" stroke="#CB8589" stroke-width="2.5" stroke-linejoin="round"/>
<path d="M61.852 182.167C61.852 182.167 61.4279 203.326 56.8867 221.769C52.3457 240.212 42.0425 259.476 42.0425 259.476" stroke="#CB8589" stroke-width="2.5" stroke-linejoin="round"/>
<path d="M262.534 101.913C262.534 101.913 303.493 120.844 346.857 131.987C390.22 143.13 436.961 143.753 436.961 143.753" stroke="#CB8589" stroke-width="2.5" stroke-linejoin="round"/>
</g>
<defs>
<clipPath id="clip0_54_889">
<rect width="463.005" height="307.384" fill="white" transform="translate(10.1058) rotate(1.88405)"/>
</clipPath>
</defs>
</svg>
