<svg width="39" height="46" viewBox="0 0 39 46" fill="none" xmlns="http://www.w3.org/2000/svg">
<g clip-path="url(#clip0_54_851)">
<path d="M14.4971 1.01941H24.5029C25.7753 1.01941 26.9375 1.68504 26.7997 2.49728L22.0201 30.6593C21.8833 31.4652 21.6665 32.1371 21.2272 32.1371H17.7728C17.3335 32.1371 17.1166 31.4652 16.9799 30.6593L12.2004 2.49728C12.0625 1.68504 13.2247 1.01941 14.4971 1.01941Z" fill="#E3B23C" stroke="#E3B23C" stroke-width="3.632" stroke-linejoin="round"/>
<path d="M19.5 44.9805C21.3665 44.9805 22.8796 43.469 22.8796 41.6045C22.8796 39.74 21.3665 38.2285 19.5 38.2285C17.6335 38.2285 16.1204 39.74 16.1204 41.6045C16.1204 43.469 17.6335 44.9805 19.5 44.9805Z" fill="#E3B23C" stroke="#E3B23C" stroke-width="3.632" stroke-linejoin="round"/>
<path d="M24.3214 10.0224C22.6999 9.97741 20.2263 11.0995 19.4721 11.4615C18.6457 11.0672 16.2692 10.0063 14.6947 10.0471C12.7841 10.0965 10.4482 10.8501 8.83076 11.8671C6.9382 13.057 6.25217 14.6234 4.5935 16.6163C3.52906 17.8953 0.20752 19.0033 0.20752 19.0033C0.20752 19.0033 6.774 22.6019 9.89246 22.5531C13.1563 22.502 18.3431 19.3128 19.526 18.5584C20.801 19.3712 25.883 22.4806 29.1006 22.537C32.219 22.5917 38.7926 19.0057 38.7926 19.0057C38.7926 19.0057 35.4722 17.8924 34.4101 16.6114C32.7552 14.6153 31.9372 13.0468 30.1821 11.8544C28.6018 10.7807 26.2318 10.0755 24.3214 10.0224Z" fill="white" stroke="#E3B23C" stroke-width="0.738478" stroke-linejoin="round"/>
</g>
<defs>
<clipPath id="clip0_54_851">
<rect width="39" height="46" fill="white"/>
</clipPath>
</defs>
</svg>
