<svg width="396" height="271" viewBox="0 0 396 271" fill="none" xmlns="http://www.w3.org/2000/svg">
<g clip-path="url(#clip0_54_209)">
<path d="M387.184 0.701416H8.81641C4.35256 0.701416 0.733902 4.15962 0.733902 8.42554V262.575C0.733902 266.841 4.35256 270.299 8.81641 270.299H387.184C391.648 270.299 395.266 266.841 395.266 262.575V8.42554C395.266 4.15962 391.648 0.701416 387.184 0.701416Z" fill="#423E37"/>
<path d="M365.418 13.599H30.5818C24.5214 13.599 19.6084 18.2941 19.6084 24.0858V246.914C19.6084 252.706 24.5214 257.401 30.5818 257.401H365.418C371.479 257.401 376.392 252.706 376.392 246.914V24.0858C376.392 18.2941 371.479 13.599 365.418 13.599Z" fill="#A39594" stroke="#57544B" stroke-width="0.951001" stroke-linejoin="round"/>
<path d="M332.068 38.2701H226.119V71.4389H332.068V38.2701Z" fill="#EDEBD7"/>
<path d="M325.37 44.0892H234.034V49.9083H325.37V44.0892Z" fill="#A39594"/>
<path d="M325.37 53.9817H236.47V58.055H325.37V53.9817Z" fill="#A39594"/>
<path d="M326.588 61.5464H235.861V66.2016H326.588V61.5464Z" fill="#A39594"/>
<path d="M77.1197 32.069V124.011H143.177L151.407 115.87V32.069H77.1197Z" fill="#EDEBD7" stroke="#EDEBD7" stroke-width="0.951001" stroke-linejoin="round"/>
<path d="M143.186 44.5798H86.2536V48.9441H143.186V44.5798Z" fill="#A39594"/>
<path d="M143.491 51.8536H86.5581V56.2179H143.491V51.8536Z" fill="#A39594"/>
<path d="M143.795 59.4185H86.8625V63.7828H143.795V59.4185Z" fill="#A39594"/>
<path d="M143.491 67.5652H86.5581V71.9295H143.491V67.5652Z" fill="#A39594"/>
<path d="M143.795 74.839H86.8625V79.2033H143.795V74.839Z" fill="#A39594"/>
<path d="M143.543 91.5438H86.6103V95.9081H143.543V91.5438Z" fill="#A39594"/>
<path d="M143.847 98.8177H86.9148V103.182H143.847V98.8177Z" fill="#A39594"/>
<path d="M144.152 106.382H87.2192V110.747H144.152V106.382Z" fill="#A39594"/>
<path d="M143.186 124.156L142.73 114.991L152.168 114.7L143.186 124.156Z" fill="#EDEBD7"/>
<path d="M243.065 145.915L242.399 62.1096L182.187 62.5472L174.744 70.0224L175.352 146.407L243.065 145.915Z" fill="#EDEBD7" stroke="#A39594" stroke-width="0.866869" stroke-linejoin="round"/>
<path d="M235.706 101.341H183.81V105.319H235.706V101.341Z" fill="#A39594"/>
<path d="M235.984 108.237H184.088V112.215H235.984V108.237Z" fill="#A39594"/>
<path d="M235.476 116.568H183.58V120.546H235.476V116.568Z" fill="#A39594"/>
<path d="M235.754 123.198H183.858V127.177H235.754V123.198Z" fill="#A39594"/>
<path d="M236.031 130.094H184.135V134.072H236.031V130.094Z" fill="#A39594"/>
<path d="M182.177 62.4153L182.66 70.7663L174.059 71.094L182.177 62.4153Z" fill="#A39594"/>
<path d="M229.02 69.9424H189.839V94.2192H229.02V69.9424Z" fill="#A39594"/>
<path d="M232.225 139.223C236.597 139.223 240.141 135.966 240.141 131.949C240.141 127.931 236.597 124.675 232.225 124.675C227.854 124.675 224.31 127.931 224.31 131.949C224.31 135.966 227.854 139.223 232.225 139.223Z" fill="#CB8589"/>
<path d="M271.734 138.228V230.17H337.791L346.021 222.029V138.228H271.734Z" fill="#EDEBD7"/>
<path d="M337.8 150.739H280.868V155.104H337.8V150.739Z" fill="#A39594"/>
<path d="M338.105 158.013H281.172V162.377H338.105V158.013Z" fill="#A39594"/>
<path d="M338.409 165.578H281.476V169.942H338.409V165.578Z" fill="#A39594"/>
<path d="M338.105 173.724H281.172V178.089H338.105V173.724Z" fill="#A39594"/>
<path d="M338.409 180.998H281.476V185.363H338.409V180.998Z" fill="#A39594"/>
<path d="M338.714 188.563H281.781V192.928H338.714V188.563Z" fill="#A39594"/>
<path d="M338.157 197.703H281.224V202.068H338.157V197.703Z" fill="#A39594"/>
<path d="M338.461 204.977H281.529V209.341H338.461V204.977Z" fill="#A39594"/>
<path d="M338.766 212.542H281.833V216.906H338.766V212.542Z" fill="#A39594"/>
<path d="M332.097 160.471C336.468 160.471 340.012 157.344 340.012 153.488C340.012 149.631 336.468 146.505 332.097 146.505C327.725 146.505 324.181 149.631 324.181 153.488C324.181 157.344 327.725 160.471 332.097 160.471Z" fill="#CB8589"/>
<path d="M43.3442 157.769L43.1813 241.603L103.363 241.663L110.876 234.247L111.024 157.836L43.3442 157.769Z" fill="#EDEBD7" stroke="#A39594" stroke-width="0.866869" stroke-linejoin="round"/>
<path d="M50.2452 202.423L102.137 202.854L102.177 198.857L50.2846 198.427L50.2452 202.423Z" fill="#A39594"/>
<path d="M50.033 195.526L101.925 195.956L101.965 191.96L50.0724 191.529L50.033 195.526Z" fill="#A39594"/>
<path d="M50.6192 187.199L102.511 187.629L102.551 183.633L50.6586 183.203L50.6192 187.199Z" fill="#A39594"/>
<path d="M50.4045 180.566L102.297 180.997L102.336 177.001L50.4439 176.57L50.4045 180.566Z" fill="#A39594"/>
<path d="M50.1923 173.669L102.085 174.099L102.124 170.103L50.2317 169.672L50.1923 173.669Z" fill="#A39594"/>
<path d="M103.403 241.795L103.003 233.437L111.603 233.181L103.403 241.795Z" fill="#A39594"/>
<path d="M56.6339 233.875L95.803 234.199L96.0433 209.908L56.8742 209.584L56.6339 233.875Z" fill="#A39594"/>
<path d="M257.15 179.816H151.201V212.985H257.15V179.816Z" fill="#EDEBD7"/>
<path d="M250.452 195.527H161.552V199.601H250.452V195.527Z" fill="#A39594"/>
<path d="M251.67 203.092H160.943V207.748H251.67V203.092Z" fill="#A39594"/>
</g>
<defs>
<clipPath id="clip0_54_209">
<rect width="396" height="271" fill="white"/>
</clipPath>
</defs>
</svg>
